<svg width="1200" height="630" viewBox="0 0 1200 630" fill="none" xmlns="http://www.w3.org/2000/svg">
  <rect width="1200" height="630" fill="#F8FFF2"/>
  <circle cx="1000" cy="114" r="210" fill="#D7FF3F" opacity="0.9"/>
  <circle cx="220" cy="528" r="190" fill="#78E3D1" opacity="0.26"/>
  <rect x="64" y="64" width="1072" height="502" rx="48" fill="white" stroke="#E8EDE5" stroke-width="2"/>
  <text x="104" y="151" fill="#111827" font-family="Inter, Arial, sans-serif" font-size="64" font-weight="800">CreatteAI</text>
  <text x="104" y="220" fill="#111827" font-family="Inter, Arial, sans-serif" font-size="32" font-weight="700">Ads estáticos con IA para Meta</text>
  <text x="104" y="282" fill="#64748B" font-family="Inter, Arial, sans-serif" font-size="25" font-weight="500">Analiza tu web, Instagram y objeciones.</text>
  <text x="104" y="318" fill="#64748B" font-family="Inter, Arial, sans-serif" font-size="25" font-weight="500">Devuelve creativos listos para Meta.</text>
  <rect x="104" y="370" width="238" height="64" rx="32" fill="#111827"/>
  <text x="142" y="411" fill="white" font-family="Inter, Arial, sans-serif" font-size="22" font-weight="800">Generar mis Ads</text>
  <g transform="translate(725 132)">
    <rect x="0" y="38" width="190" height="330" rx="28" fill="#111827"/>
    <rect x="18" y="58" width="154" height="290" rx="22" fill="#D7FF3F"/>
    <rect x="43" y="96" width="104" height="98" rx="28" fill="#FFFEF7"/>
    <rect x="38" y="226" width="114" height="18" rx="9" fill="#111827"/>
    <rect x="50" y="258" width="90" height="12" rx="6" fill="#111827" opacity="0.55"/>
    <rect x="49" y="294" width="92" height="30" rx="15" fill="#111827"/>
  </g>
  <g transform="translate(900 98) rotate(8)">
    <rect x="0" y="0" width="190" height="330" rx="28" fill="#111827"/>
    <rect x="18" y="20" width="154" height="290" rx="22" fill="#78E3D1"/>
    <circle cx="95" cy="116" r="58" fill="#F8FFF2"/>
    <rect x="39" y="216" width="112" height="18" rx="9" fill="#111827"/>
    <rect x="52" y="249" width="86" height="12" rx="6" fill="#111827" opacity="0.55"/>
    <rect x="44" y="286" width="102" height="30" rx="15" fill="#111827"/>
  </g>
  <g transform="translate(590 258)">
    <path d="M132 107c25 13 35 43 18 61-17 17-49 11-56-12-4-15 6-29 20-32 8-1 16 1 21 6-1-10-7-19-17-23h14Z" fill="#38A993"/>
    <path d="M123 77c-11 23-34 38-60 38-48 0-87-39-87-87 0-49 39-102 87-102 37 0 68 24 81 57 6 18 9 50 0 70-5 10-13 16-21 24Z" fill="#78E3D1"/>
    <ellipse cx="65" cy="57" rx="47" ry="57" fill="#D8FFF2"/>
    <circle cx="33" cy="-5" r="29" fill="#ECFFF9"/>
    <circle cx="99" cy="-5" r="29" fill="#ECFFF9"/>
    <circle cx="35" cy="-3" r="19" fill="#050816"/>
    <circle cx="101" cy="-3" r="19" fill="#050816"/>
    <circle cx="27" cy="-11" r="6" fill="white"/>
    <circle cx="93" cy="-11" r="6" fill="white"/>
    <path d="M50 38c11 9 26 9 37 0" stroke="#237968" stroke-width="8" stroke-linecap="round"/>
    <path d="M116 -49l46 52" stroke="#D7FF3F" stroke-width="13" stroke-linecap="round"/>
    <path d="M105 -60l25 27-17 15-25-27 17-15Z" fill="#FFB25B"/>
  </g>
</svg>
