<svg width="500" height="500" viewBox="0 0 500 500" fill="none" xmlns="http://www.w3.org/2000/svg">
  <defs>
    <radialGradient id="body" cx="0" cy="0" r="1" gradientUnits="userSpaceOnUse" gradientTransform="translate(226 189) rotate(78) scale(244 212)">
      <stop offset="0" stop-color="#D8FFF2"/>
      <stop offset="0.45" stop-color="#78E3D1"/>
      <stop offset="1" stop-color="#38A993"/>
    </radialGradient>
    <radialGradient id="belly" cx="0" cy="0" r="1" gradientUnits="userSpaceOnUse" gradientTransform="translate(255 296) rotate(85) scale(112 142)">
      <stop offset="0" stop-color="#F7FFF7"/>
      <stop offset="1" stop-color="#BBF7D0"/>
    </radialGradient>
    <radialGradient id="eye" cx="0" cy="0" r="1" gradientUnits="userSpaceOnUse" gradientTransform="translate(0 0) rotate(90) scale(44)">
      <stop offset="0" stop-color="#FFFFFF"/>
      <stop offset="0.32" stop-color="#384456"/>
      <stop offset="1" stop-color="#070A12"/>
    </radialGradient>
    <linearGradient id="pencil" x1="323" y1="108" x2="404" y2="199" gradientUnits="userSpaceOnUse">
      <stop stop-color="#FFE27A"/>
      <stop offset="0.55" stop-color="#FF9F6E"/>
      <stop offset="1" stop-color="#7C3AED"/>
    </linearGradient>
    <filter id="softShadow" x="75" y="53" width="358" height="392" filterUnits="userSpaceOnUse" color-interpolation-filters="sRGB">
      <feFlood flood-opacity="0" result="BackgroundImageFix"/>
      <feColorMatrix in="SourceAlpha" type="matrix" values="0 0 0 0 0 0 0 0 0 0 0 0 0 0 0 0 0 0 127 0" result="hardAlpha"/>
      <feOffset dy="18"/>
      <feGaussianBlur stdDeviation="18"/>
      <feComposite in2="hardAlpha" operator="out"/>
      <feColorMatrix type="matrix" values="0 0 0 0 0.08 0 0 0 0 0.15 0 0 0 0 0.18 0 0 0 0.24 0"/>
      <feBlend mode="normal" in2="BackgroundImageFix" result="effect1_dropShadow_1_2"/>
      <feBlend mode="normal" in="SourceGraphic" in2="effect1_dropShadow_1_2" result="shape"/>
    </filter>
  </defs>
  <g filter="url(#softShadow)">
    <path d="M357 296c46 24 64 80 33 113-31 32-89 20-101-22-8-27 10-54 36-59 15-3 30 2 40 12-2-18-14-35-31-44h23Z" fill="#39B08E"/>
    <path d="M321 333c-15 23-43 38-75 38-71 0-129-58-129-130S175 91 247 91c54 0 101 34 120 81 10 26 15 73 0 103-7 15-27 26-46 58Z" fill="url(#body)"/>
    <path d="M191 348c-33-18-55-55-55-98 0-63 49-132 111-132 38 0 72 24 93 59-19-13-44-20-72-20-67 0-121 61-121 137 0 19 4 38 11 54h33Z" fill="#63D8C1" opacity="0.45"/>
    <ellipse cx="253" cy="291" rx="78" ry="96" fill="url(#belly)" opacity="0.8"/>
    <circle cx="196" cy="190" r="47" fill="#E9FFF8"/>
    <circle cx="303" cy="190" r="47" fill="#E9FFF8"/>
    <circle cx="199" cy="194" r="33" fill="url(#eye)"/>
    <circle cx="306" cy="194" r="33" fill="url(#eye)"/>
    <circle cx="187" cy="180" r="9" fill="white"/>
    <circle cx="294" cy="180" r="9" fill="white"/>
    <circle cx="213" cy="207" r="5" fill="#8BE7FF" opacity="0.75"/>
    <circle cx="320" cy="207" r="5" fill="#8BE7FF" opacity="0.75"/>
    <path d="M225 259c17 15 43 15 60 0" stroke="#237968" stroke-width="10" stroke-linecap="round"/>
    <circle cx="176" cy="245" r="12" fill="#FF8DA1" opacity="0.82"/>
    <circle cx="329" cy="245" r="12" fill="#FF8DA1" opacity="0.82"/>
    <path d="M144 141c15-31 45-55 80-65" stroke="#C8FF3F" stroke-width="20" stroke-linecap="round"/>
    <path d="M253 75c39 2 75 20 99 50" stroke="#C8FF3F" stroke-width="20" stroke-linecap="round"/>
    <path d="M336 121l69 78" stroke="#1D2433" stroke-width="16" stroke-linecap="round"/>
    <path d="M324 109l35 39-23 21-35-39 23-21Z" fill="url(#pencil)"/>
    <path d="M295 124l29-15-14 30-15-15Z" fill="#FDE68A"/>
    <path d="M402 196l9 10-12 11-9-10 12-11Z" fill="#C8FF3F"/>
    <path d="M169 343c-13 19-33 31-56 31" stroke="#38A993" stroke-width="22" stroke-linecap="round"/>
    <path d="M337 342c14 20 34 32 58 32" stroke="#38A993" stroke-width="22" stroke-linecap="round"/>
  </g>
</svg>
