<svg width="512" height="512" viewBox="0 0 512 512" fill="none" xmlns="http://www.w3.org/2000/svg">
  <rect width="512" height="512" rx="112" fill="#F8FFF2"/>
  <circle cx="256" cy="256" r="220" fill="#D7FF3F"/>
  <circle cx="256" cy="256" r="178" fill="#0F172A"/>
  <path d="M340 319c33 18 45 58 22 82-23 24-65 15-74-16-6-20 7-39 26-43 11-2 22 1 29 8-1-13-10-25-23-31h20Z" fill="#38A993"/>
  <path d="M329 281c-15 31-46 52-82 52-65 0-118-53-118-118 0-66 53-137 118-137 50 0 92 32 109 77 9 24 13 67 0 94-6 13-17 21-27 32Z" fill="#78E3D1"/>
  <ellipse cx="250" cy="254" rx="64" ry="77" fill="#D8FFF2"/>
  <circle cx="207" cy="171" r="39" fill="#ECFFF9"/>
  <circle cx="296" cy="171" r="39" fill="#ECFFF9"/>
  <circle cx="209" cy="174" r="25" fill="#050816"/>
  <circle cx="298" cy="174" r="25" fill="#050816"/>
  <circle cx="199" cy="164" r="8" fill="white"/>
  <circle cx="288" cy="164" r="8" fill="white"/>
  <path d="M229 229c14 12 35 12 49 0" stroke="#237968" stroke-width="10" stroke-linecap="round"/>
  <path d="M317 112l62 70" stroke="#D7FF3F" stroke-width="17" stroke-linecap="round"/>
  <path d="M302 97l34 37-23 21-34-37 23-21Z" fill="#FFB25B"/>
</svg>
